<svg xmlns="http://www.w3.org/2000/svg" viewBox="1167.2 1817 81.6 95.3">
  <defs>
    <style>
      .cls-1 {
        fill: #2b2e34;
      }
    </style>
  </defs>
  <g id="Group_153" data-name="Group 153" transform="translate(717 1817)">
    <path id="Path_200" data-name="Path 200" class="cls-1" d="M450.2,30.4V67.8a27.484,27.484,0,0,0,27.5,27.5h26.6a27.484,27.484,0,0,0,27.5-27.5V30.4ZM491,36.7c.2-.1,3.2,4.3,3.5,7.3a13.127,13.127,0,0,0-3.5,3,14.907,14.907,0,0,0-3.5-3C487.8,41,490.8,36.5,491,36.7Zm-8,6c.1-.1,5.4,2.3,7.3,5a8.794,8.794,0,0,1,.6,1,8.794,8.794,0,0,0,.6-1c1.9-2.6,7.2-5,7.3-5a20.478,20.478,0,0,1-.7,6.9c-2.7,1-5.5,2.3-7.2,4.7-1.7-2.3-4.6-3.7-7.2-4.7A20.479,20.479,0,0,1,483,42.7Zm-2.4,6.9c.1-.1,6.3,1.6,8.8,4.2A10.188,10.188,0,0,1,491,56a13.386,13.386,0,0,1,1.6-2.2c2.5-2.6,8.7-4.3,8.8-4.2a23.814,23.814,0,0,1-1.6,6.7c-3,1.1-5.8,2.4-7.5,4.9a2,2,0,0,0-2.7,0c-1.7-2.4-4.5-3.8-7.5-4.9A22.031,22.031,0,0,1,480.6,49.6Zm18.9,16.3c-2.5,2.6-5.2,2.9-6.7,1.4a2.181,2.181,0,0,1-.4-.5L493.6,86a2.64,2.64,0,0,1-2.5,2.9,2.7,2.7,0,0,1-2.8-2.9l1.2-19.2a1.756,1.756,0,0,1-.4.5c-1.5,1.5-4.2,1.2-6.7-1.4s-3.4-9.5-3.3-9.6,6.3,1.6,8.8,4.2a9.408,9.408,0,0,1,1.8,2.6V63a1.24,1.24,0,0,1,1.3-1.2,1.379,1.379,0,0,1,1.2,1.2v.1a6.139,6.139,0,0,1,1.8-2.6c2.5-2.6,8.7-4.3,8.8-4.2C503,56.5,502,63.4,499.5,65.9Z"/>
    <path id="Path_201" data-name="Path 201" class="cls-1" d="M465.7,18.9c2.1,0,2.9.9,4.7-.6a3.888,3.888,0,0,0,1.3-2.8,8.4,8.4,0,0,1,16.6-1.8,3.575,3.575,0,0,0,3.7,2.8h.3a4.815,4.815,0,0,1,4.8,5.3,3.5,3.5,0,0,0,4.7,3.6,7.147,7.147,0,0,1,5-.1,3.636,3.636,0,0,0,3.7-1,8.2,8.2,0,0,1,6-2.7,8.108,8.108,0,0,1,7.2,4.4h7.5a15.072,15.072,0,0,0-24.3-8,11.027,11.027,0,0,0-3.1-.2,11.837,11.837,0,0,0-9.3-8.2A15.613,15.613,0,0,0,480.2,0a15.334,15.334,0,0,0-15,11.9A15.5,15.5,0,0,0,450.4,26h7.1A8.3,8.3,0,0,1,465.7,18.9Z"/>
    <circle id="Ellipse_20" data-name="Ellipse 20" class="cls-1" cx="1.2" cy="1.2" r="1.2" transform="translate(476.2 18)"/>
    <circle id="Ellipse_21" data-name="Ellipse 21" class="cls-1" cx="1.1" cy="1.1" r="1.1" transform="translate(482.3 20.4)"/>
    <circle id="Ellipse_22" data-name="Ellipse 22" class="cls-1" cx="2" cy="2" r="2" transform="translate(479.4 11.8)"/>
    <circle id="Ellipse_23" data-name="Ellipse 23" class="cls-1" cx="1" cy="1" r="1" transform="translate(464.8 22.7)"/>
    <circle id="Ellipse_24" data-name="Ellipse 24" class="cls-1" cx="0.7" cy="0.7" r="0.7" transform="translate(517.2 23.7)"/>
  </g>
</svg>
