<svg xmlns="http://www.w3.org/2000/svg" viewBox="117 1818.123 101.9 94.177">
  <defs>
    <style>
      .cls-1 {
        fill: #2b2e34;
      }
    </style>
  </defs>
  <g id="Group_152" data-name="Group 152" transform="translate(117 1817)">
    <path id="Path_199" data-name="Path 199" class="cls-1" d="M36.3,47.6a11.46,11.46,0,0,0,8.8,4.2H63.7a3.585,3.585,0,0,0,3.6-3.6,2.768,2.768,0,0,0-.3-1.3h.3a5.378,5.378,0,0,0,5.4-5.4,6.537,6.537,0,0,0-.4-2.1h1.2a5.389,5.389,0,0,0,2.8-10h1.6a5.4,5.4,0,1,0,0-10.8h-27a1.6,1.6,0,0,1-1.4-.8,1.81,1.81,0,0,1-.1-1.6,29.817,29.817,0,0,0,3-8.7A5.385,5.385,0,1,0,41.8,5.6a23.006,23.006,0,0,1-6.2,11.6,5.547,5.547,0,0,0-.6.8,4.909,4.909,0,0,1-4.2,2.4H18V45.8H32.5A4.945,4.945,0,0,1,36.3,47.6Z"/>
    <rect id="Rectangle_21" data-name="Rectangle 21" class="cls-1" width="101.9" height="6.4" transform="translate(0 73)"/>
    <circle id="Ellipse_4" data-name="Ellipse 4" class="cls-1" cx="2.7" cy="2.7" r="2.7" transform="translate(6.8 83.3)"/>
    <circle id="Ellipse_5" data-name="Ellipse 5" class="cls-1" cx="2.7" cy="2.7" r="2.7" transform="translate(13.7 89.9)"/>
    <circle id="Ellipse_6" data-name="Ellipse 6" class="cls-1" cx="2.7" cy="2.7" r="2.7" transform="translate(20.6 83.3)"/>
    <circle id="Ellipse_7" data-name="Ellipse 7" class="cls-1" cx="2.7" cy="2.7" r="2.7" transform="translate(41.3 89.9)"/>
    <circle id="Ellipse_8" data-name="Ellipse 8" class="cls-1" cx="2.7" cy="2.7" r="2.7" transform="translate(34.4 83.3)"/>
    <circle id="Ellipse_9" data-name="Ellipse 9" class="cls-1" cx="2.7" cy="2.7" r="2.7" transform="translate(27.5 89.9)"/>
    <circle id="Ellipse_10" data-name="Ellipse 10" class="cls-1" cx="2.7" cy="2.7" r="2.7" transform="translate(48.3 83.3)"/>
    <circle id="Ellipse_11" data-name="Ellipse 11" class="cls-1" cx="2.7" cy="2.7" r="2.7" transform="translate(69 89.9)"/>
    <circle id="Ellipse_12" data-name="Ellipse 12" class="cls-1" cx="2.7" cy="2.7" r="2.7" transform="translate(62.1 83.3)"/>
    <circle id="Ellipse_13" data-name="Ellipse 13" class="cls-1" cx="2.7" cy="2.7" r="2.7" transform="translate(55.1 89.9)"/>
    <circle id="Ellipse_14" data-name="Ellipse 14" class="cls-1" cx="2.7" cy="2.7" r="2.7" transform="translate(75.8 83.3)"/>
    <circle id="Ellipse_15" data-name="Ellipse 15" class="cls-1" cx="2.7" cy="2.7" r="2.7" transform="translate(89.6 83.3)"/>
    <circle id="Ellipse_16" data-name="Ellipse 16" class="cls-1" cx="2.7" cy="2.7" r="2.7" transform="translate(82.7 89.9)"/>
    <circle id="Ellipse_17" data-name="Ellipse 17" class="cls-1" cx="2.7" cy="2.7" r="2.7" transform="translate(44 57.1)"/>
    <circle id="Ellipse_18" data-name="Ellipse 18" class="cls-1" cx="2.7" cy="2.7" r="2.7" transform="translate(57.8 57.1)"/>
    <circle id="Ellipse_19" data-name="Ellipse 19" class="cls-1" cx="2.7" cy="2.7" r="2.7" transform="translate(50.9 63.6)"/>
  </g>
</svg>
